<?xml version="1.0" encoding="utf-8"?>
<!-- Generator: Adobe Illustrator 23.0.5, SVG Export Plug-In . SVG Version: 6.00 Build 0)  -->
<svg version="1.1" id="Layer_1" xmlns="http://www.w3.org/2000/svg" xmlns:xlink="http://www.w3.org/1999/xlink" x="0px" y="0px"
	 viewBox="0 0 764 768" style="enable-background:new 0 0 764 768;" xml:space="preserve">
<style type="text/css">
	.st0{fill:#2E3092;}
	.st1{fill-rule:evenodd;clip-rule:evenodd;fill:#FFFFFF;}
	.st2{fill-rule:evenodd;clip-rule:evenodd;fill:#E9F2FB;}
	.st3{fill:#E9F2FB;}
	.st4{fill-rule:evenodd;clip-rule:evenodd;fill:#F58220;}
	.st5{fill-rule:evenodd;clip-rule:evenodd;fill:#2E3092;}
	.st6{fill:#F58220;}
</style>
<rect class="st6" width="764" height="764"/>
<path class="st1" d="M381.73,112.85c146.57,0,265.38,118.74,265.38,265.21c0,146.47-118.81,265.21-265.38,265.21
	S116.35,524.53,116.35,378.06C116.35,231.58,235.16,112.85,381.73,112.85 M381.73,30.01C574.08,30.01,730,185.84,730,378.06
	c0,192.22-155.92,348.04-348.27,348.04S33.46,570.28,33.46,378.06C33.46,185.84,189.39,30.01,381.73,30.01"/>
<path class="st2" d="M484.93,233.68v0.18l-0.1-0.08l-0.09,0.08v-0.18c-5.78-5.35-13.35-10.2-18.17-15.08
	c-9.22-9.34-15.23-23.68-9.96-33.3c6.75-12.31,22.12-6.76,28.23,4.3c6.11-11.06,21.49-16.61,28.23-4.3
	c5.27,9.62-0.73,23.97-9.96,33.3C498.28,223.48,490.72,228.33,484.93,233.68"/>
<path class="st4" d="M379.57,364.36c12.15,0,21.99,9.85,21.99,21.99s-9.85,21.99-21.99,21.99c-12.15,0-21.99-9.84-21.99-21.99
	S367.43,364.36,379.57,364.36"/>
<path class="st4" d="M363.91,613.95c0,0,10,3.33,17.99,3.33c8,0,15.66-2.33,15.66-2.33s1.67-97.97,3.67-129.3
	c2-31.32,14-70.64,22.66-89.3c8.66-18.67,33.33-53.32,33.33-53.32s-30.66,13.99-46.66,52.65s-19.33,31.99-19.33,31.99h-21.33
	c0,0-21.99-38.66-32.65-53.32c-10.67-14.67-33.99-27.33-33.99-27.33s23.99,26.66,41.32,74.64c17.33,47.99,17.33,64.65,18.66,85.98
	C364.58,528.98,363.91,613.95,363.91,613.95"/>
<path class="st1" d="M191.29,358.43c-18.74,8.51-27.4,29.78-19.35,47.5c8.05,17.73,29.77,25.19,48.5,16.69
	c18.74-8.51,27.4-29.78,19.35-47.5C231.75,357.39,210.03,349.92,191.29,358.43"/>
<path class="st1" d="M309.91,328.88c-1.87-0.67-3.74-1.34-5.61-2.01c-53.3,116.48-114.17,145.5-175.49,81.22
	c7.27,106.11,98.01,203.82,222.87,219.12C284.52,567.58,267.15,467.92,309.91,328.88"/>
<path class="st1" d="M570.6,358.43c18.74,8.51,27.4,29.78,19.35,47.5c-8.05,17.73-29.77,25.19-48.5,16.69
	c-18.74-8.51-27.4-29.78-19.35-47.5C530.15,357.39,551.86,349.92,570.6,358.43"/>
<path class="st1" d="M451.98,328.88c1.87-0.67,3.74-1.34,5.61-2.01c53.3,116.48,114.17,145.5,175.49,81.22
	c-7.27,106.11-98.01,203.82-222.88,219.12C477.38,567.58,494.74,467.92,451.98,328.88"/>
<path class="st1" d="M126.38,369.55c2.31-22.53,4.86-42.71,9.61-60.17c4.47-16.41,11.11-30.39,15.04-42.43
	c15.77-7.64,87.77-55.39,99.86-61.11c23.67-11.18,53.7-16.11,78.79-7.21c17.83,6.33,29.15,19.92,53.11,39.02
	c22.77,4.13,52.16,1.1,78.24,1.65c19.28,2.83,27.74,9.49,24.25,20.39c-4.15,8-16.44,8.68-28.1,9.92
	c-22.96,1.84-45.92,3.67-68.87,5.51c-8.26,1.29-27,0.09-24.79,3.86c3.3,3.53,18.18,0.46,27.27,0.68
	c20.71-1.56,41.42-3.12,62.12-4.68c8.95-1.29,17.9-2.57,26.86-3.86c12.79-4.3,14.32-11.96,12.4-20.66
	c11.48-9.46,22.96-18.92,34.44-28.38c13.48-14.39,24.45-12.47,34.98-7.71c-13.13,13.59-26.26,27.18-39.39,40.77
	c-6.15,8.08-12.31,16.16-18.46,24.25c-3.27,5.49-29.33,16.08-75.21,31.13c-16.35,7.61-32.69,8.37-49.04,2.75
	c-19.37-6.7-38.75-13.41-58.13-20.11c-15.8-6.2-31.4-5.1-46.83,1.93C263.41,301.12,137.49,363.54,126.38,369.55"/>
<path class="st4" d="M351.81,168.32c1.32,6.94-0.53,13.15,0.79,20.09c4.63,0.89,8.05,2.3,12.5,4.37
	c6.06,2.84,12.51,7.41,18.65,10.58c6.61,3.28,12.91,5.81,20.19,4.21c7.25-1.59,14.06-6.73,18.44-8.55
	c6.82-3.14,12.22-5.06,19.03-8.2c0.96-0.56,5.87-1.77,8.22-1.83c1.95-0.04,3.88,0.55,5.59,0.69c-1.47-2.39-2.29-5.15-3.12-6.85
	c-2.88-4.82-7.49-6.21-13.05-5.72c-13.12,1.9-22.44-0.98-22.69-15.17c1.83-19.61,0.68-31.85-4.49-34.13
	c-0.7,8.17-7.09,14.65-9.35,19.24c-4.28,8.63-5.74,11.68-6.24,19.03c-9.08-9.08-15.06-21.29-18.13-36.45
	c-12.49,16.6-14.32,33.89-5,51.9C368.33,184.84,358.85,174.21,351.81,168.32"/>
<path class="st0" d="M682.81,380.88c-4.43,3.27-8.36,5.95-11.8,8.02l0.01,0.19c5.72-0.4,9.89-0.65,12.51-0.71l19.96-0.51l0.21,8.1
	l-44.08,1.12l-0.22-8.47l19.93-14.91c3.44-2.61,7.45-5.34,12.02-8.16v-0.19c-5.4,0.4-9.58,0.64-12.54,0.71l-19.97,0.51l-0.21-8.1
	l44.08-1.12l0.22,8.47L682.81,380.88z M679.99,346.31c-3.32,0.59-6.43,0.67-9.36,0.22c-2.92-0.45-5.55-1.41-7.86-2.86
	c-2.32-1.45-4.27-3.39-5.84-5.83c-1.57-2.43-2.66-5.32-3.25-8.67c-0.6-3.36-0.58-6.45,0.05-9.27c0.63-2.84,1.79-5.32,3.46-7.49
	c1.66-2.16,3.8-3.96,6.39-5.4c2.59-1.44,5.54-2.45,8.86-3.04c3.31-0.59,6.43-0.66,9.36-0.21c2.93,0.45,5.55,1.4,7.86,2.85
	c2.31,1.45,4.26,3.39,5.84,5.83c1.56,2.43,2.65,5.32,3.25,8.68c0.6,3.36,0.58,6.44-0.04,9.27c-0.64,2.83-1.79,5.32-3.47,7.49
	c-1.66,2.16-3.79,3.97-6.39,5.41C686.26,344.71,683.3,345.72,679.99,346.31 M678.52,338.07c2.65-0.47,4.9-1.21,6.76-2.21
	c1.87-1,3.36-2.19,4.47-3.58c1.11-1.37,1.86-2.91,2.23-4.6c0.37-1.69,0.38-3.48,0.05-5.36c-0.34-1.89-0.97-3.56-1.9-5.01
	c-0.93-1.46-2.16-2.64-3.69-3.55c-1.52-0.92-3.33-1.51-5.43-1.81c-2.1-0.3-4.46-0.21-7.11,0.27c-2.64,0.47-4.9,1.2-6.76,2.21
	c-1.87,1-3.35,2.19-4.46,3.58c-1.1,1.37-1.85,2.91-2.23,4.61c-0.37,1.69-0.4,3.48-0.06,5.36c0.33,1.89,0.97,3.55,1.91,5.01
	c0.95,1.46,2.18,2.64,3.69,3.55c1.52,0.92,3.32,1.52,5.42,1.81C673.51,338.64,675.88,338.54,678.52,338.07 M645.33,292.02
	l41.77-14.13l2.6,7.67l-41.77,14.13L645.33,292.02z M638.39,272.54l-3.34-7.38l34.02-15.38l-5.86-12.99l6.15-2.78l15.06,33.32
	l-6.15,2.78l-5.86-12.95L638.39,272.54z M647.07,217.38c-4.72,1.15-8.71,2.05-11.97,2.7l-4.17,0.9l6.2,9.68l2.55-3.41
	c1.97-2.7,4.46-5.96,7.46-9.76L647.07,217.38z M632.85,236.49l-9.01-14.06l-11.75,2.45l-4.65-7.24l46.57-9.06l3.99,6.21
	l-27.67,38.54l-4.61-7.19L632.85,236.49z M593.31,189.22c3.09,3.57,6,5.93,8.72,7.09c2.41,1.02,4.86,1.25,7.33,0.71
	c2.46-0.55,5.01-1.94,7.62-4.2c1.36-1.18,2.45-2.4,3.29-3.64s1.44-2.53,1.81-3.83c0.37-1.3,0.51-2.63,0.43-3.96
	c-0.08-1.34-0.37-2.69-0.85-4.05c-0.45-1.26-1.1-2.54-1.93-3.84c-0.85-1.31-1.89-2.68-3.14-4.13l-2.33-2.69l-23.12,20.03
	L593.31,189.22z M580.72,185l33.33-28.87l7.64,8.82c0.68,0.78,1.34,1.6,1.98,2.45c0.65,0.86,1.26,1.69,1.82,2.55
	c0.56,0.86,1.07,1.69,1.55,2.53c0.48,0.83,0.89,1.65,1.2,2.42c0.98,2.26,1.57,4.5,1.79,6.69c0.22,2.2,0.07,4.32-0.45,6.38
	c-0.51,2.06-1.37,4.03-2.58,5.91c-1.21,1.87-2.77,3.63-4.66,5.26c-1.79,1.56-3.64,2.82-5.56,3.78c-1.92,0.96-3.87,1.6-5.88,1.9
	c-2.01,0.31-4.03,0.28-6.09-0.12c-2.06-0.38-4.14-1.15-6.24-2.29c-1.75-0.96-3.54-2.21-5.35-3.77c-1.82-1.57-3.71-3.47-5.65-5.71
	L580.72,185z M577.12,149.28c-0.57,5.48-1.24,10.19-2.02,14.12l0.14,0.12c3.56-4.5,6.19-7.74,7.91-9.73l13.07-15.09l6.13,5.3
	l-28.87,33.33l-6.4-5.55l2.41-24.77c0.38-4.31,1.08-9.1,2.06-14.38l-0.14-0.12c-3.34,4.25-5.98,7.51-7.92,9.74l-13.08,15.11
	l-6.13-5.31l28.87-33.33l6.41,5.55L577.12,149.28z M518.45,138.1c-2-1.15-3.69-2.39-5.07-3.69c-1.37-1.31-2.45-2.69-3.25-4.12
	c-0.8-1.43-1.33-2.93-1.58-4.47c-0.26-1.55-0.25-3.14,0-4.77c0.19-1.31,0.57-2.67,1.14-4.06c0.56-1.4,1.31-2.9,2.23-4.5l12.94-22.51
	l7.03,4.04L519.3,115.9c-1.55,2.7-2.45,5-2.68,6.89c-0.24,2.12,0.11,3.94,1.06,5.49s2.38,2.87,4.26,3.96
	c1.88,1.08,3.74,1.64,5.56,1.69c1.82,0.04,3.57-0.57,5.28-1.85c1.52-1.15,3.06-3.09,4.61-5.79l12.58-21.88l7.02,4.04l-12.94,22.51
	c-0.92,1.6-1.84,2.99-2.77,4.18c-0.91,1.19-1.9,2.19-2.93,3.02c-1.28,1.03-2.67,1.84-4.14,2.39c-1.46,0.56-3.04,0.85-4.71,0.86
	c-1.67,0.01-3.43-0.24-5.27-0.78C522.38,140.09,520.45,139.25,518.45,138.1 M502.49,103.37c-1.07,3.19-2.51,5.96-4.32,8.3
	c-1.8,2.35-3.91,4.19-6.29,5.51c-2.39,1.34-5.02,2.1-7.92,2.31c-2.88,0.2-5.94-0.24-9.17-1.34c-3.23-1.1-5.93-2.6-8.1-4.51
	c-2.18-1.92-3.81-4.13-4.89-6.64c-1.1-2.49-1.64-5.24-1.65-8.2c-0.01-2.96,0.52-6.04,1.6-9.22c1.08-3.19,2.53-5.95,4.33-8.3
	c1.81-2.35,3.91-4.2,6.29-5.51c2.39-1.34,5.02-2.1,7.92-2.31c2.88-0.21,5.94,0.24,9.17,1.33c3.23,1.1,5.93,2.6,8.1,4.51
	c2.18,1.93,3.81,4.14,4.89,6.65c1.09,2.49,1.65,5.24,1.66,8.2C504.12,97.11,503.58,100.18,502.49,103.37 M494.56,100.68
	c0.86-2.55,1.3-4.87,1.32-6.99c0.03-2.11-0.29-3.99-0.98-5.64c-0.67-1.64-1.66-3.03-2.96-4.17c-1.3-1.14-2.86-2.02-4.67-2.63
	c-1.81-0.61-3.58-0.87-5.31-0.75c-1.73,0.12-3.36,0.62-4.88,1.52c-1.54,0.89-2.94,2.19-4.21,3.89c-1.27,1.7-2.33,3.81-3.2,6.35
	c-0.86,2.54-1.3,4.87-1.32,6.99c-0.02,2.12,0.31,3.99,0.98,5.64c0.67,1.63,1.66,3.02,2.96,4.17c1.3,1.14,2.85,2.02,4.67,2.64
	c1.81,0.61,3.58,0.86,5.31,0.73c1.72-0.12,3.36-0.63,4.89-1.51c1.54-0.9,2.93-2.18,4.2-3.88
	C492.64,105.35,493.71,103.22,494.56,100.68 M430.2,105.04l-7.98-1.42l7.75-43.41l27.67,4.94l-1.19,6.65l-19.7-3.52l-2,11.23
	l16.85,3.01l-1.19,6.65l-16.85-3.01L430.2,105.04z M364.06,94.93l21.69-0.56l0.17,6.75l-29.79,0.76l-1.11-44.08l28.6-0.73l0.17,6.75
	l-20.5,0.52l0.29,11.41l17.61-0.45l0.17,6.75l-17.61,0.45L364.06,94.93z M327.88,95.7c0.38-2.49,0.66-4.28,0.84-5.35
	c0.18-1.07,0.56-3.27,1.15-6.58l4.2-23.01l8.41-1.5l-9.24,46.45l-7.13,1.27l-24.73-40.38l8.47-1.51l11.91,20.13
	c1.7,2.91,2.82,4.83,3.35,5.78c0.55,0.95,1.42,2.53,2.64,4.73L327.88,95.7z M280,84.8c-0.02,4.85-0.11,8.94-0.27,12.27l-0.13,4.26
	l10.89-3.68l-2.69-3.29c-2.15-2.56-4.71-5.76-7.67-9.6L280,84.8z M295.11,103.2l-15.82,5.35l-0.46,11.98l-8.16,2.77l2.45-47.38
	l6.99-2.37l30.72,36.16l-8.09,2.74L295.11,103.2z M240.42,132.4c4.08-2.35,6.96-4.76,8.62-7.21c1.46-2.17,2.15-4.53,2.09-7.05
	c-0.06-2.52-0.95-5.28-2.67-8.28c-0.9-1.56-1.88-2.87-2.94-3.93c-1.07-1.06-2.21-1.9-3.42-2.5c-1.21-0.61-2.48-1-3.8-1.18
	c-1.34-0.18-2.72-0.15-4.14,0.06c-1.32,0.2-2.7,0.6-4.15,1.16c-1.44,0.58-2.99,1.34-4.65,2.3l-3.08,1.77l15.25,26.52L240.42,132.4z
	 M233.87,143.95l-21.98-38.23l10.12-5.82c0.9-0.51,1.82-1,2.78-1.48c0.96-0.47,1.9-0.91,2.85-1.3c0.94-0.38,1.86-0.73,2.78-1.03
	c0.91-0.32,1.78-0.56,2.6-0.72c2.41-0.53,4.71-0.68,6.92-0.48c2.2,0.21,4.26,0.76,6.17,1.66c1.93,0.89,3.7,2.12,5.31,3.66
	c1.6,1.55,3.04,3.41,4.28,5.57c1.18,2.06,2.06,4.12,2.64,6.18c0.58,2.07,0.83,4.11,0.75,6.13c-0.08,2.03-0.5,4.01-1.27,5.96
	c-0.77,1.95-1.92,3.84-3.44,5.7c-1.27,1.53-2.85,3.05-4.73,4.53c-1.88,1.49-4.12,2.97-6.68,4.45L233.87,143.95z M183.69,175.01
	l15.71-14.98l4.66,4.89l-21.57,20.56l-30.43-31.91l20.7-19.75l4.66,4.89l-14.84,14.15l7.88,8.26l12.75-12.15l4.66,4.89l-12.75,12.15
	L183.69,175.01z M129.46,179.72l29.36,23.08l12.75-16.23l5.31,4.17l-17.76,22.6l-34.67-27.25L129.46,179.72z M116.97,207.43
	c-1.19,1.85-1.98,3.76-2.37,5.71c-0.4,1.95-0.36,3.86,0.09,5.73c0.45,1.87,1.32,3.67,2.64,5.39c1.31,1.74,3.07,3.31,5.27,4.72
	c2.19,1.4,4.3,2.35,6.32,2.84c2.03,0.49,3.93,0.55,5.74,0.18c1.8-0.36,3.48-1.12,5.04-2.3c1.55-1.19,2.95-2.75,4.21-4.72
	c0.91-1.41,1.72-2.91,2.44-4.51c0.73-1.6,1.3-3.17,1.71-4.71l5.81,3.73c-0.46,1.53-1.07,3.1-1.81,4.75
	c-0.76,1.64-1.65,3.25-2.68,4.87c-2.01,3.15-4.23,5.63-6.67,7.44c-2.43,1.8-4.97,2.98-7.65,3.54c-2.67,0.55-5.4,0.51-8.2-0.16
	c-2.8-0.66-5.59-1.86-8.35-3.64c-2.84-1.81-5.18-3.93-7.05-6.35c-1.87-2.42-3.18-5.01-3.91-7.77c-0.74-2.77-0.83-5.68-0.3-8.77
	c0.55-3.09,1.8-6.18,3.74-9.26c1.01-1.57,2.06-2.99,3.18-4.27c1.11-1.26,2.22-2.34,3.33-3.22l5.73,3.67
	c-1.4,1.2-2.59,2.39-3.58,3.55C118.64,205.01,117.76,206.21,116.97,207.43 M94.89,258.19c3.69,3.15,6.76,5.86,9.2,8.13l3.17,2.85
	l4.22-10.7l-4.26-0.07c-3.34-0.01-7.44-0.13-12.28-0.34L94.89,258.19z M118.7,258.54l-6.13,15.53l8.86,8.09l-3.16,8.01l-34.6-32.46
	l2.7-6.87l47.45-0.12l-3.13,7.95L118.7,258.54z M88.6,310.02c0.41-1.8,0.69-3.34,0.81-4.63c0.12-1.29,0.12-2.39,0.01-3.32
	c-0.23-1.71-0.8-3-1.7-3.85c-0.89-0.84-2.01-1.42-3.36-1.74c-1.15-0.27-2.24-0.26-3.24,0.01c-1,0.28-1.88,0.93-2.66,1.96
	c-0.52,0.66-0.98,1.55-1.41,2.65c-0.43,1.09-0.82,2.48-1.21,4.14l-1.29,5.61l13.16,3.03L88.6,310.02z M86.39,288.43
	c2.99,0.69,5.34,2.11,7.04,4.25c1.7,2.14,2.66,5.06,2.87,8.77l0.12,0.03l20.65-8.81l-2.19,9.48L95.54,310l-1.25,5.41l16.64,3.84
	l-1.82,7.9l-42.96-9.91l3.01-13.06c0.51-2.17,1.09-4.15,1.77-5.96c0.67-1.8,1.41-3.31,2.21-4.52c1.54-2.3,3.42-3.92,5.62-4.86
	C80.98,287.9,83.52,287.77,86.39,288.43 M106.85,345.96L63.1,340.4l1.02-8.03l43.74,5.56L106.85,345.96z M92.56,378.91
	c-3.5-0.87-7.26-1.97-11.26-3.3l-21.28-7.08l-0.28-11.34l44.08-1.11l0.21,8.1l-22.33,0.56c-3.28,0.08-7.08,0.04-11.42-0.11
	l0.01,0.29c1.27,0.34,2.69,0.75,4.25,1.21c1.57,0.47,3.13,0.96,4.65,1.47l25.14,8.48l0.13,5.2l-24.68,9.74
	c-1.5,0.59-3.02,1.16-4.57,1.7c-1.54,0.55-2.94,1.02-4.18,1.42l0.01,0.29c4.07-0.36,7.84-0.59,11.37-0.68l22.37-0.57l0.21,8.1
	l-44.08,1.12l-0.29-11.27l20.79-8.15c3.47-1.36,7.19-2.65,11.18-3.87L92.56,378.91z"/>
<path class="st5" d="M685.39,416.35c7.88,0,14.28,6.39,14.28,14.28s-6.39,14.28-14.28,14.28c-7.88,0-14.28-6.39-14.28-14.28
	S677.5,416.35,685.39,416.35"/>
<path class="st5" d="M83.02,416.35c7.88,0,14.28,6.39,14.28,14.28s-6.39,14.28-14.28,14.28c-7.88,0-14.28-6.39-14.28-14.28
	S75.13,416.35,83.02,416.35"/>
<path class="st0" d="M683.24,486.71l0.87-6.09c2.93,0.45,4.83-0.62,5.7-3.18c0.46-1.36,0.55-2.46,0.24-3.32
	c-0.3-0.86-0.87-1.42-1.72-1.71c-0.57-0.19-1.08-0.19-1.51,0c-0.45,0.21-0.95,0.72-1.5,1.56c-2.82,4.27-5,6.85-6.56,7.74
	c-1.94,1.1-4.13,1.24-6.58,0.42c-2.44-0.83-4.13-2.26-5.09-4.32c-0.95-2.05-0.92-4.55,0.08-7.51c0.96-2.82,2.23-4.78,3.83-5.88
	c1.6-1.1,3.73-1.53,6.37-1.29l-0.59,5.78c-2.29-0.24-3.81,0.75-4.56,2.98c-0.48,1.41-0.61,2.47-0.4,3.2
	c0.2,0.73,0.63,1.21,1.28,1.43c0.59,0.2,1.16,0.09,1.73-0.31c0.58-0.4,1.74-1.88,3.48-4.45c1.96-2.89,3.76-4.69,5.42-5.4
	c1.65-0.7,3.53-0.68,5.64,0.04c2.53,0.85,4.33,2.43,5.39,4.73c1.06,2.29,1.07,4.97,0.04,8.03c-0.94,2.78-2.4,4.82-4.37,6.11
	C688.47,486.56,686.07,487.05,683.24,486.71 M686.73,498.69l-2.49,5.51l-25.28-11.43l2.31-5.11l3.59,1.62
	c-1.29-1.63-2.04-2.91-2.29-3.85c-0.24-0.94-0.16-1.86,0.26-2.76c0.57-1.26,1.53-2.26,2.88-3.03l5.05,4.35
	c-1.14,0.57-1.89,1.26-2.26,2.08c-0.34,0.76-0.37,1.56-0.07,2.4c0.31,0.83,1.13,1.71,2.49,2.63c1.36,0.92,4.02,2.28,7.97,4.07
	L686.73,498.69z M665.28,507.55c-1.95-0.94-3.61-1.27-4.98-0.99c-1.37,0.28-2.33,0.95-2.88,2.04c-0.58,1.13-0.56,2.34,0.04,3.63
	c0.62,1.31,1.85,2.44,3.69,3.36L665.28,507.55z M671.75,511.22l3.82-4.76c2.12,1.98,3.39,4.03,3.82,6.16
	c0.42,2.12,0.09,4.26-1.02,6.42c-1.54,3-3.72,4.79-6.55,5.4c-3.31,0.73-7.06,0.03-11.25-2.12c-4.13-2.11-6.94-4.77-8.43-7.98
	c-1.25-2.71-1.21-5.37,0.12-7.98c1.48-2.89,3.71-4.61,6.69-5.15c3.42-0.65,7.52,0.27,12.29,2.72l0.73,0.4l-6.87,13.41
	c1.97,0.97,3.71,1.31,5.21,1c1.51-0.3,2.56-1.06,3.17-2.25C674.38,514.76,673.8,513.01,671.75,511.22 M630.5,524.92l11.81,7.58
	c-0.65-1.56-0.96-3.01-0.91-4.35c0.04-1.35,0.43-2.59,1.16-3.73c0.97-1.52,2.2-2.54,3.66-3.04c1.46-0.51,3.07-0.51,4.84,0
	c1.3,0.38,3.24,1.4,5.85,3.07l13.71,8.79l-3.26,5.08l-12.34-7.91c-2.87-1.84-4.77-2.8-5.73-2.9c-1.29-0.11-2.33,0.44-3.12,1.66
	c-0.83,1.3-0.95,2.64-0.36,4.03s2.31,3.01,5.19,4.86l11.71,7.51l-3.26,5.08l-32.21-20.65L630.5,524.92z M633.86,539.01l4.75,3.37
	l-2.38,3.35l9.12,6.49c1.98,1.41,3.15,2.17,3.54,2.29c0.71,0.21,1.29,0.01,1.72-0.61c0.32-0.45,0.6-1.24,0.82-2.36l4.95,2.88
	c-0.21,1.55-0.82,3.05-1.85,4.49c-0.89,1.25-1.9,2.04-3.03,2.36c-1.13,0.32-2.35,0.22-3.66-0.32c-0.96-0.39-2.71-1.48-5.24-3.28
	l-9.88-7.02l-1.61,2.26l-4.75-3.38l1.61-2.26l-4.48-3.19l0.02-7.4l7.97,5.67L633.86,539.01z M617.39,573.94
	c3.32,2.87,6.35,4.4,9.1,4.57c2.76,0.17,4.95-0.67,6.57-2.54c1.63-1.88,2.16-4.16,1.58-6.82c-0.57-2.65-2.56-5.47-5.98-8.42
	c-3.34-2.9-6.34-4.45-8.97-4.62c-2.65-0.18-4.81,0.7-6.5,2.65c-1.69,1.95-2.25,4.23-1.7,6.85
	C612.04,568.22,614.01,571,617.39,573.94 M613.32,579.03c-3.44-2.98-5.83-5.95-7.18-8.9s-1.85-5.72-1.52-8.31
	c0.33-2.59,1.51-5.05,3.54-7.39c2.94-3.39,6.63-5.03,11.07-4.92c4.44,0.12,9.05,2.24,13.84,6.38c4.83,4.19,7.64,8.6,8.4,13.21
	c0.69,4.06-0.45,7.81-3.39,11.2c-2.98,3.43-6.51,5.11-10.6,5.04C622.78,585.25,618.06,583.15,613.32,579.03 M594.38,604.14
	c2.04,2.14,3.87,3.37,5.49,3.7c1.62,0.32,2.92,0.02,3.88-0.9c1.05-1,1.47-2.34,1.27-4.05c-0.2-1.7-1.27-3.57-3.19-5.59
	c-1.99-2.09-3.82-3.29-5.49-3.61c-1.66-0.32-3.03,0.02-4.07,1.01c-1.03,0.98-1.43,2.3-1.18,3.93
	C591.34,600.27,592.43,602.1,594.38,604.14 M601.75,619.63l5.69-4.02c0.77,0.66,1.49,0.96,2.17,0.9c0.67-0.06,1.42-0.48,2.25-1.26
	c0.96-0.91,1.57-1.8,1.87-2.68c0.19-0.62,0.16-1.31-0.13-2.06c-0.28-0.75-1.06-1.78-2.33-3.12l-2.8-2.93
	c0.4,1.71,0.43,3.24,0.13,4.57c-0.29,1.32-0.93,2.46-1.93,3.41c-1.82,1.74-4.15,2.38-6.96,1.91c-3.25-0.53-6.4-2.4-9.48-5.63
	c-3.27-3.43-5.06-6.67-5.37-9.7c-0.31-3.04,0.5-5.48,2.44-7.32c1.02-0.97,2.2-1.59,3.57-1.84c1.35-0.26,2.89-0.14,4.59,0.33
	l-2.69-2.82l4.06-3.87l17.16,18c2.75,2.88,4.47,5.22,5.19,7.03c0.71,1.8,0.83,3.56,0.35,5.26c-0.47,1.72-1.68,3.49-3.63,5.36
	c-1.8,1.71-3.46,2.85-5,3.4c-1.54,0.56-3.04,0.62-4.52,0.22c-1.47-0.4-2.81-1.23-3.99-2.48L601.75,619.63z M595.43,622.53
	l-4.75,3.73l-8.76-11.14c-1.75-2.23-3.01-3.64-3.76-4.25c-0.76-0.61-1.55-0.91-2.34-0.93c-0.8-0.02-1.5,0.22-2.12,0.71
	c-0.79,0.62-1.3,1.44-1.55,2.46c-0.24,1.01-0.13,2.09,0.32,3.19c0.45,1.11,1.65,2.92,3.63,5.42l7.77,9.89l-4.75,3.73L562,613.53
	l4.41-3.47l2.5,3.18c-0.18-1.84-0.03-3.45,0.46-4.83c0.5-1.39,1.34-2.54,2.53-3.48c1.38-1.08,2.83-1.65,4.35-1.67
	c1.52-0.03,2.9,0.38,4.15,1.23c1.25,0.84,2.72,2.34,4.4,4.48L595.43,622.53z M568.28,642.87l-16.07-22.6l4.92-3.5l16.07,22.61
	L568.28,642.87z M550.04,617.22l-3.93-5.53l4.92-3.5l3.93,5.53L550.04,617.22z M542.31,642.23c1.56,2.72,3.16,4.47,4.78,5.26
	c1.62,0.78,3.06,0.81,4.31,0.09c1.19-0.68,1.85-1.85,1.98-3.51c0.12-1.66-0.58-3.83-2.13-6.53c-1.47-2.56-2.97-4.2-4.51-4.95
	c-1.54-0.74-2.9-0.77-4.11-0.07c-1.26,0.73-1.98,1.93-2.13,3.6C540.33,637.8,540.94,639.84,542.31,642.23 M530.48,633.59l4.86-2.79
	l2.03,3.53c-0.07-1.65,0.23-3.14,0.9-4.5c0.67-1.35,1.63-2.39,2.88-3.11c2.25-1.29,4.8-1.32,7.65-0.11
	c2.85,1.21,5.41,3.79,7.68,7.73c2.38,4.14,3.39,7.78,3.03,10.91c-0.37,3.14-1.67,5.35-3.92,6.64c-1.04,0.6-2.15,0.9-3.34,0.92
	c-1.19,0.01-2.65-0.37-4.41-1.12l6.94,12.08l-5.24,3.01L530.48,633.59z M532.95,663.58l-17.44-34.06l5.37-2.75l17.44,34.06
	L532.95,663.58z M515.44,654.03c-0.94-1.95-2.04-3.25-3.28-3.88c-1.25-0.63-2.41-0.71-3.52-0.21c-1.16,0.52-1.9,1.49-2.23,2.88
	c-0.35,1.41-0.08,3.06,0.79,4.92L515.44,654.03z M518.21,660.93l5.96-1.35c0.42,2.88,0.13,5.27-0.85,7.2
	c-0.99,1.93-2.59,3.39-4.8,4.38c-3.07,1.39-5.89,1.43-8.49,0.14c-3.05-1.49-5.54-4.38-7.48-8.67c-1.91-4.23-2.45-8.06-1.61-11.49
	c0.71-2.9,2.4-4.96,5.06-6.16c2.97-1.34,5.78-1.29,8.45,0.14c3.07,1.63,5.71,4.9,7.92,9.78l0.32,0.77l-13.73,6.2
	c0.93,1.99,2.08,3.33,3.45,4.03c1.37,0.7,2.66,0.77,3.88,0.22C518.07,665.33,518.7,663.6,518.21,660.93 M479.51,685.36l-12.26-36.25
	l5.98-2.03l4.83,14.28l11.8-3.99l-4.83-14.28l5.98-2.02l12.26,36.25l-5.97,2.02l-5.36-15.85l-11.8,3.99l5.36,15.85L479.51,685.36z
	 M435.01,667.85l6.25-1.45L451,684.4l0.72-20.4l6.05-1.4l-1.79,27.81l-0.33,5.4c-0.23,2.05-0.56,3.59-1.01,4.61
	c-0.46,1.04-1.12,1.91-2.03,2.61c-0.9,0.71-2.09,1.24-3.57,1.57c-1.14,0.26-2.28,0.38-3.43,0.36l-1.8-5.46
	c0.97-0.01,1.81-0.08,2.55-0.26c1.12-0.26,1.96-0.85,2.51-1.75c0.56-0.91,0.85-2.39,0.87-4.45L435.01,667.85z M420.21,682.69
	c0.31,2.37,0.76,4.15,1.37,5.34c0.6,1.2,1.36,2.06,2.27,2.61c0.91,0.54,1.83,0.76,2.74,0.64c1.32-0.17,2.34-1,3.1-2.5
	c0.75-1.5,0.95-3.73,0.57-6.72c-0.4-3.13-1.16-5.34-2.28-6.62c-1.11-1.28-2.39-1.82-3.84-1.64c-1.38,0.17-2.46,1-3.27,2.47
	C420.08,677.76,419.86,679.89,420.21,682.69 M416.1,697.79l-4.82-37.97l5.99-0.76l1.73,13.64c0.75-1.4,1.64-2.48,2.64-3.27
	c1.02-0.77,2.15-1.24,3.41-1.4c2.65-0.34,5.05,0.58,7.19,2.75c2.13,2.18,3.51,5.6,4.1,10.29c0.59,4.67,0.11,8.38-1.44,11.13
	c-1.55,2.76-3.61,4.29-6.13,4.61c-1.29,0.16-2.61-0.07-3.97-0.72c-1.36-0.63-2.58-1.66-3.64-3.07l0.51,4.04L416.1,697.79z
	 M377.55,691.29l6.01-1.29c0.59,2.92,2.25,4.33,4.96,4.26c1.43-0.04,2.5-0.34,3.2-0.92c0.7-0.58,1.04-1.31,1.01-2.21
	c-0.01-0.61-0.18-1.08-0.51-1.42c-0.35-0.34-1.01-0.63-1.99-0.86c-4.97-1.18-8.15-2.35-9.52-3.49c-1.71-1.45-2.59-3.46-2.66-6.04
	c-0.07-2.58,0.7-4.66,2.3-6.26c1.6-1.59,3.96-2.43,7.08-2.5c2.97-0.08,5.26,0.45,6.84,1.57c1.57,1.12,2.72,2.97,3.41,5.54
	l-5.63,1.44c-0.57-2.23-2.02-3.32-4.37-3.25c-1.49,0.04-2.53,0.28-3.14,0.73c-0.62,0.45-0.92,1.01-0.9,1.7
	c0.02,0.62,0.32,1.12,0.88,1.52c0.57,0.4,2.37,0.98,5.38,1.74c3.39,0.84,5.7,1.91,6.93,3.23c1.22,1.31,1.85,3.08,1.91,5.31
	c0.06,2.67-0.8,4.91-2.59,6.69c-1.79,1.78-4.3,2.72-7.53,2.8c-2.93,0.07-5.35-0.6-7.24-2C379.49,696.15,378.21,694.06,377.55,691.29
	 M353,689.28l6.11-0.67c0.29,2.95,1.8,4.54,4.5,4.74c1.42,0.11,2.52-0.08,3.28-0.59c0.75-0.51,1.16-1.2,1.23-2.1
	c0.04-0.6-0.08-1.1-0.37-1.46c-0.31-0.38-0.93-0.73-1.88-1.06c-4.83-1.67-7.87-3.15-9.12-4.44c-1.55-1.61-2.23-3.7-2.03-6.28
	c0.19-2.56,1.17-4.56,2.92-5.99c1.75-1.42,4.18-2.01,7.3-1.77c2.97,0.22,5.19,0.97,6.64,2.25c1.46,1.27,2.41,3.23,2.83,5.85
	l-5.75,0.86c-0.33-2.28-1.67-3.51-4.02-3.68c-1.48-0.11-2.55,0.02-3.2,0.41c-0.66,0.38-1.02,0.91-1.07,1.6
	c-0.05,0.62,0.19,1.15,0.72,1.6c0.53,0.46,2.26,1.21,5.18,2.27c3.29,1.18,5.47,2.48,6.57,3.91c1.08,1.42,1.53,3.25,1.36,5.47
	c-0.21,2.67-1.29,4.81-3.25,6.4c-1.96,1.59-4.55,2.27-7.77,2.03c-2.92-0.22-5.26-1.13-7-2.72
	C354.45,694.31,353.38,692.11,353,689.28 M344.59,679.85c0.22-2.15-0.03-3.83-0.77-5.01c-0.72-1.2-1.68-1.87-2.88-2.03
	c-1.26-0.16-2.4,0.27-3.41,1.29c-1.03,1.02-1.66,2.58-1.91,4.62L344.59,679.85z M343.33,687.18l5.79,1.98
	c-1.15,2.67-2.65,4.56-4.5,5.69c-1.85,1.12-3.98,1.54-6.38,1.23c-3.34-0.42-5.77-1.86-7.31-4.33c-1.81-2.87-2.43-6.63-1.83-11.3
	c0.58-4.6,2.13-8.15,4.64-10.64c2.13-2.1,4.64-2.97,7.54-2.6c3.22,0.42,5.6,1.93,7.13,4.55c1.76,3,2.3,7.16,1.62,12.48l-0.13,0.83
	l-14.95-1.9c-0.24,2.18,0.03,3.93,0.83,5.24c0.8,1.31,1.86,2.05,3.19,2.22C340.91,690.86,342.35,689.71,343.33,687.18
	 M322.49,693.34l-5.89-1.36l3.19-13.81c0.64-2.76,0.95-4.63,0.95-5.59c-0.01-0.97-0.26-1.77-0.75-2.4s-1.11-1.03-1.88-1.21
	c-0.98-0.23-1.94-0.11-2.88,0.33c-0.95,0.46-1.7,1.21-2.28,2.26c-0.58,1.04-1.24,3.11-1.95,6.22l-2.83,12.26l-5.88-1.36l6.24-27.03
	l5.46,1.26l-0.91,3.95c1.32-1.3,2.68-2.19,4.06-2.68c1.39-0.48,2.82-0.56,4.29-0.22c1.71,0.4,3.06,1.17,4.02,2.34
	c0.98,1.17,1.53,2.5,1.65,4c0.13,1.51-0.11,3.59-0.72,6.23L322.49,693.34z M289.72,685.11l7.58-26.68l5.81,1.65l-7.58,26.68
	L289.72,685.11z M298.32,654.83l1.85-6.53l5.81,1.65l-1.85,6.53L298.32,654.83z M273.09,664.44c-1.01,2.98-1.27,5.33-0.78,7.07
	c0.49,1.73,1.42,2.83,2.78,3.29c1.29,0.44,2.61,0.16,3.93-0.84c1.32-1,2.49-2.97,3.48-5.91c0.95-2.8,1.19-5.01,0.73-6.65
	c-0.46-1.64-1.35-2.69-2.66-3.13c-1.39-0.47-2.75-0.21-4.11,0.78C275.09,660.02,273.97,661.83,273.09,664.44 M271.73,649.85
	l5.32,1.8l-1.31,3.85c1.2-1.13,2.51-1.9,3.98-2.3c1.45-0.4,2.87-0.36,4.23,0.1c2.45,0.83,4.17,2.72,5.15,5.66
	c0.98,2.94,0.74,6.57-0.72,10.88c-1.53,4.52-3.59,7.68-6.18,9.48c-2.59,1.8-5.12,2.29-7.56,1.46c-1.14-0.38-2.1-1.02-2.9-1.9
	c-0.79-0.88-1.48-2.23-2.08-4.05l-4.46,13.2l-5.72-1.94L271.73,649.85z M249,654.02c-1.29,2.86-1.78,5.18-1.47,6.95
	c0.31,1.78,1.13,2.96,2.45,3.55c1.24,0.56,2.58,0.41,3.99-0.45c1.41-0.86,2.77-2.7,4.04-5.54c1.22-2.69,1.67-4.87,1.38-6.55
	c-0.3-1.67-1.08-2.8-2.35-3.37c-1.33-0.61-2.72-0.47-4.17,0.37C251.43,649.82,250.14,651.5,249,654.02 M249.08,639.37l5.12,2.31
	l-1.68,3.71c1.3-1.02,2.69-1.65,4.18-1.9c1.48-0.25,2.89-0.07,4.2,0.52c2.36,1.06,3.88,3.11,4.57,6.14
	c0.68,3.03,0.09,6.62-1.78,10.76c-1.97,4.35-4.33,7.29-7.08,8.83c-2.76,1.54-5.32,1.77-7.67,0.71c-1.1-0.5-1.99-1.22-2.7-2.18
	c-0.7-0.96-1.26-2.37-1.67-4.24l-5.74,12.7l-5.5-2.49L249.08,639.37z M233.61,646.83c-0.82-0.11-2.05-0.38-3.66-0.83
	c-1.87-0.51-3.19-0.65-3.99-0.42c-0.8,0.23-1.44,0.76-1.9,1.57c-0.53,0.92-0.7,1.86-0.52,2.81c0.19,0.95,0.71,1.66,1.55,2.14
	c0.74,0.42,1.62,0.59,2.64,0.5c1.02-0.09,1.87-0.41,2.55-0.93c0.68-0.53,1.55-1.72,2.6-3.56L233.61,646.83z M229.61,637.69
	l-4.16-3.69c1.98-2.13,3.93-3.35,5.87-3.66c1.93-0.32,4.13,0.23,6.6,1.64c2.2,1.27,3.7,2.54,4.51,3.83c0.8,1.28,1.14,2.6,1.03,3.96
	c-0.12,1.35-0.99,3.43-2.6,6.24l-4.32,7.41c-1.2,2.08-2,3.68-2.43,4.8c-0.42,1.11-0.74,2.36-0.96,3.78l-5.14-2.96l0.83-3.02
	c-1.5,0.55-2.91,0.79-4.23,0.74c-1.33-0.06-2.56-0.42-3.71-1.07c-1.91-1.1-3.12-2.65-3.59-4.65c-0.48-2-0.11-4.07,1.12-6.21
	c0.79-1.37,1.71-2.41,2.8-3.14c1.08-0.72,2.25-1.14,3.5-1.21c1.26-0.08,3.02,0.22,5.29,0.9c2.74,0.82,4.73,1.28,5.96,1.34
	c0.77-1.33,1.17-2.25,1.22-2.78c0.05-0.52-0.1-1.06-0.45-1.61c-0.35-0.55-0.98-1.09-1.91-1.62c-0.93-0.54-1.79-0.75-2.56-0.63
	C231.5,636.17,230.62,636.71,229.61,637.69 M188.68,633.74l22.18-31.19l5.14,3.66l-8.74,12.28l10.15,7.22l8.74-12.28l5.14,3.66
	l-22.17,31.18l-5.14-3.66l9.69-13.63l-10.15-7.22l-9.69,13.63L188.68,633.74z M172.23,601.02c-1.94,2.24-2.99,4.17-3.15,5.83
	c-0.17,1.64,0.25,2.9,1.26,3.78c1.1,0.95,2.48,1.24,4.16,0.88c1.67-0.37,3.43-1.61,5.26-3.72c1.89-2.18,2.91-4.11,3.07-5.8
	c0.17-1.69-0.3-3-1.4-3.95c-1.07-0.93-2.42-1.21-4.02-0.8C175.79,597.63,174.07,598.9,172.23,601.02 M157.52,609.85l4.55,5.28
	c-0.58,0.83-0.81,1.57-0.68,2.25c0.12,0.66,0.62,1.37,1.48,2.11c1,0.87,1.94,1.4,2.84,1.6c0.64,0.13,1.31,0.03,2.04-0.32
	c0.71-0.36,1.67-1.23,2.88-2.63l2.65-3.06c-1.67,0.56-3.18,0.74-4.53,0.57c-1.35-0.16-2.54-0.7-3.58-1.6
	c-1.9-1.65-2.76-3.89-2.56-6.75c0.21-3.28,1.78-6.6,4.7-9.96c3.1-3.58,6.15-5.68,9.15-6.28c3-0.6,5.5-0.02,7.52,1.72
	c1.06,0.93,1.79,2.05,2.17,3.38c0.38,1.32,0.42,2.86,0.12,4.6l2.55-2.94l4.24,3.67l-16.28,18.8c-2.61,3.01-4.77,4.95-6.5,5.84
	c-1.72,0.87-3.46,1.16-5.2,0.85c-1.75-0.31-3.64-1.34-5.68-3.1c-1.88-1.63-3.16-3.18-3.86-4.66c-0.7-1.47-0.92-2.97-0.66-4.47
	c0.26-1.51,0.96-2.92,2.08-4.22L157.52,609.85z M153.94,603.66l-4.17-4.38l10.25-9.77c2.05-1.96,3.34-3.35,3.87-4.16
	c0.53-0.82,0.76-1.62,0.7-2.42c-0.06-0.8-0.36-1.47-0.9-2.04c-0.7-0.73-1.56-1.16-2.6-1.31c-1.03-0.14-2.09,0.07-3.14,0.63
	c-1.06,0.55-2.74,1.93-5.05,4.13l-9.1,8.67l-4.17-4.37l20.07-19.14l3.87,4.06l-2.93,2.8c1.81-0.36,3.44-0.36,4.86-0.01
	c1.43,0.37,2.66,1.09,3.71,2.18c1.21,1.27,1.91,2.66,2.07,4.17c0.17,1.5-0.1,2.92-0.82,4.25c-0.72,1.32-2.06,2.93-4.03,4.81
	L153.94,603.66z M131.24,578.68l20.96-18.16l3.95,4.56l-20.96,18.17L131.24,578.68z M155.03,558.06l5.13-4.45l3.96,4.57l-5.13,4.45
	L155.03,558.06z M149.69,557.54l-4.58,3.6l-2.54-3.23l-8.8,6.92c-1.91,1.51-2.98,2.42-3.2,2.75c-0.41,0.63-0.37,1.24,0.09,1.82
	c0.34,0.44,1.02,0.92,2.03,1.45l-4.16,3.93c-1.43-0.64-2.69-1.65-3.78-3.04c-0.95-1.2-1.42-2.39-1.42-3.57
	c0.02-1.18,0.46-2.31,1.35-3.42c0.65-0.81,2.19-2.18,4.63-4.1l9.53-7.49l-1.72-2.18l4.58-3.61l1.71,2.19l4.33-3.4l7.09,2.11
	l-7.69,6.04L149.69,557.54z M125.64,549.18c-0.68-0.48-1.64-1.29-2.87-2.43c-1.42-1.31-2.54-2.04-3.34-2.21
	c-0.82-0.17-1.62,0.01-2.41,0.52c-0.9,0.58-1.48,1.34-1.75,2.26c-0.26,0.93-0.13,1.8,0.38,2.61c0.46,0.72,1.17,1.27,2.11,1.66
	c0.95,0.4,1.84,0.5,2.69,0.35c0.85-0.17,2.16-0.82,3.95-1.96L125.64,549.18z M126.3,539.22l-2-5.2c2.74-0.97,5.04-1.15,6.9-0.54
	c1.86,0.61,3.56,2.1,5.1,4.51c1.37,2.14,2.11,3.96,2.24,5.46c0.12,1.51-0.18,2.84-0.9,3.99c-0.73,1.14-2.46,2.59-5.19,4.34
	l-7.24,4.58c-2.03,1.3-3.48,2.34-4.37,3.13c-0.89,0.8-1.75,1.76-2.59,2.92l-3.2-5l2.13-2.3c-1.58-0.2-2.94-0.63-4.09-1.29
	c-1.16-0.66-2.08-1.55-2.8-2.67c-1.2-1.86-1.54-3.79-1.05-5.78c0.5-2,1.78-3.66,3.86-4.99c1.33-0.86,2.63-1.35,3.93-1.5
	c1.29-0.14,2.52,0.03,3.67,0.53c1.15,0.51,2.58,1.59,4.27,3.24c2.06,1.99,3.61,3.31,4.67,3.93c1.29-0.83,2.08-1.46,2.36-1.91
	c0.28-0.43,0.4-0.98,0.34-1.64c-0.06-0.65-0.37-1.42-0.95-2.31c-0.58-0.91-1.24-1.5-1.98-1.74
	C128.67,538.75,127.64,538.82,126.3,539.22 M115.25,527.61c1.85-1.12,3.03-2.34,3.54-3.64c0.51-1.3,0.47-2.46-0.13-3.52
	c-0.63-1.11-1.66-1.75-3.08-1.94c-1.44-0.19-3.05,0.23-4.83,1.27L115.25,527.61z M108.65,531.03l1.92,5.8
	c-2.82,0.7-5.23,0.64-7.25-0.14c-2.01-0.8-3.62-2.25-4.83-4.35c-1.68-2.92-2-5.72-0.96-8.43c1.18-3.18,3.82-5.94,7.89-8.28
	c4.02-2.31,7.78-3.22,11.28-2.73c2.96,0.42,5.17,1.91,6.63,4.44c1.62,2.82,1.85,5.63,0.68,8.42c-1.32,3.22-4.32,6.16-8.96,8.84
	l-0.74,0.4l-7.51-13.06c-1.88,1.12-3.12,2.4-3.68,3.83c-0.57,1.43-0.51,2.72,0.16,3.88C104.25,531.32,106.04,531.78,108.65,531.03
	 M89.2,512.81l-2.49-5.5l25.27-11.43l2.31,5.11l-3.59,1.62c2.08,0.12,3.54,0.4,4.4,0.84c0.87,0.44,1.5,1.11,1.91,2.01
	c0.57,1.26,0.69,2.64,0.37,4.16l-6.6,0.92c0.32-1.24,0.3-2.25-0.07-3.07c-0.34-0.76-0.93-1.3-1.76-1.63
	c-0.83-0.32-2.04-0.28-3.63,0.13c-1.59,0.42-4.37,1.51-8.32,3.3L89.2,512.81z M94.88,490.67l0.07,6.58
	c-4.35,0.7-7.85,0.36-10.52-0.98c-2.67-1.34-4.59-3.53-5.78-6.55c-1.5-3.8-1.25-7.47,0.75-10.98c2.31-4.04,6.34-7.21,12.08-9.48
	c6.06-2.39,11.35-2.89,15.86-1.51c3.92,1.22,6.67,3.82,8.25,7.83c1.29,3.28,1.25,6.45-0.12,9.54c-0.97,2.19-2.88,4.28-5.73,6.24
	l-3.98-5.15c1.77-1.13,2.96-2.46,3.55-3.98c0.59-1.51,0.58-3.03-0.01-4.53c-0.85-2.16-2.48-3.54-4.88-4.16
	c-2.41-0.63-5.77-0.09-10.08,1.61c-4.47,1.76-7.39,3.68-8.76,5.75c-1.37,2.07-1.64,4.16-0.8,6.28c0.61,1.55,1.75,2.65,3.39,3.32
	C89.83,491.14,92.06,491.21,94.88,490.67"/>
</svg>
